<svg class="icon" style="width: 1em; height: 1em;vertical-align: middle;fill: currentColor;overflow: hidden;" viewBox="0 0 1024 1024" version="1.1" xmlns="http://www.w3.org/2000/svg"><path d="M703.6928 641.04448l0-245.76c0-112.92672-91.87328-204.8-204.8-204.8s-204.8 91.87328-204.8 204.8l0 245.76c0 112.92672 91.87328 204.8 204.8 204.8S703.6928 753.95072 703.6928 641.04448zM335.0528 641.04448l0-245.76c0-90.33728 73.50272-163.84 163.84-163.84s163.84 73.50272 163.84 163.84l0 245.76c0 90.33728-73.50272 163.84-163.84 163.84S335.0528 731.38176 335.0528 641.04448zM552.59136 419.57376l0-61.44c0-28.24192-22.95808-51.2-51.2-51.2s-51.2 22.95808-51.2 51.2l0 61.44c0 28.24192 22.95808 51.2 51.2 51.2S552.59136 447.81568 552.59136 419.57376zM491.15136 419.57376l0-61.44c0-5.632 4.608-10.24 10.24-10.24s10.24 4.608 10.24 10.24l0 61.44c0 5.632-4.608 10.24-10.24 10.24S491.15136 425.22624 491.15136 419.57376z" /></svg>